<svg width="620" height="877" viewBox="0 0 620 877" fill="none" xmlns="http://www.w3.org/2000/svg">
<g clip-path="url(#clip0_37_3)">
<path fill-rule="evenodd" clip-rule="evenodd" d="M321.572 1105.56C252.212 1096.57 191.121 1062.46 135.234 1019.62C73.5633 972.345 -12.0585 926.606 -15.092 847.491C-18.1758 767.067 71.2714 719.428 121.335 657.126C156.425 613.458 184.016 562.863 233.565 538.05C281.227 514.182 335.475 531.545 387.873 523.649C466.756 511.763 551.923 434.037 617.381 480.214C680.159 524.5 633.831 630.299 648.076 707.207C662.097 782.909 724.548 853.214 700.002 926.276C675.142 1000.27 595.379 1037.49 526.083 1070.32C461.671 1100.83 391.754 1114.67 321.572 1105.56Z" fill="#F5F6FF"/>
</g>
<defs>
<clipPath id="clip0_37_3">
<rect width="620" height="876.869" fill="white"/>
</clipPath>
</defs>
</svg>
